<?xml version="1.0" encoding="utf-8"?>
<!-- Generator: Adobe Illustrator 23.0.1, SVG Export Plug-In . SVG Version: 6.00 Build 0)  -->
<svg version="1.1" id="Layer_1" xmlns="http://www.w3.org/2000/svg" xmlns:xlink="http://www.w3.org/1999/xlink" x="0px" y="0px"
	 viewBox="0 0 1512 256" style="enable-background:new 0 0 1512 256;" xml:space="preserve">
<style type="text/css">
	.st0{opacity:0.5;fill:#FFFFFF;}
	.st1{opacity:0.7;fill:#00FF00;}
	.st2{opacity:0.7;fill:#FF0000;}
	.st3{opacity:0.7;fill:#0000FF;}
	.st4{fill:#BC00AA;}
	.st5{fill:#F7931E;}
	.st6{fill:#8CC63F;}
	.st7{fill:#CCCCCC;}
</style>
<g>
	<path d="M293,64.72h25.65v113.59H293V64.72z M306.63,113.24h88.75v17.89h-88.75V113.24z M380.03,64.72h25.65v113.59h-25.65V64.72z"
		/>
	<path d="M444.2,173.28c-6.37-4.14-9.55-10.43-9.55-18.87c0-8.02,3.22-14.04,9.66-18.05c6.44-4.01,16.1-6.02,28.97-6.02h29.83
		l1.5,14.53h-31.23c-5.08,0-8.89,0.78-11.43,2.34c-2.54,1.56-3.81,3.96-3.81,7.19c0,3.39,1.65,5.9,4.94,7.54
		c3.29,1.64,8.26,2.46,14.92,2.46c8.16,0,14.22-0.65,18.19-1.95c3.97-1.3,5.96-3.33,5.96-6.09l2.25,11.56
		c-1.22,2.55-3.34,4.69-6.38,6.41c-3.04,1.72-6.71,3.01-11,3.87c-4.29,0.86-8.98,1.29-14.06,1.29
		C460.15,179.49,450.57,177.42,444.2,173.28z M502.15,126.91c0-4.53-1.84-8.05-5.53-10.55c-3.69-2.5-8.89-3.75-15.61-3.75
		c-4.29,0-8.51,0.5-12.66,1.48c-4.15,0.99-7.87,2.37-11.16,4.14l-17.06-10.47c4.36-3.7,10.09-6.57,17.17-8.63
		c7.08-2.06,14.95-3.09,23.61-3.09c9.44,0,17.53,1.19,24.25,3.55c6.72,2.37,11.86,5.81,15.4,10.31c3.54,4.51,5.31,9.94,5.31,16.29
		v52.11h-23.72V126.91z"/>
	<path d="M556.99,97.22h25.65v81.09h-25.65V97.22z M622.98,129.17c0-4.84-1.79-8.59-5.37-11.25c-3.58-2.66-8.66-3.98-15.24-3.98
		c-6.3,0-11.16,1.24-14.59,3.71c-3.43,2.47-5.15,5.98-5.15,10.51l-2.25-16.8c3.36-5,7.6-8.8,12.72-11.41
		c5.11-2.6,11.14-3.91,18.08-3.91c11.87,0,21.09,2.88,27.63,8.63c6.55,5.76,9.82,13.89,9.82,24.41v49.22h-25.65V129.17z"/>
	<path d="M693.97,175.62c-5.69-2.68-10.02-6.56-12.98-11.64c-2.97-5.08-4.45-11.21-4.45-18.4v-15.47c0-7.19,1.47-13.35,4.4-18.48
		c2.93-5.13,7.21-9.04,12.82-11.72c5.62-2.68,12.36-4.02,20.23-4.02c6.29,0,12.04,1.28,17.22,3.83c5.19,2.55,9.35,6.15,12.5,10.78
		l-2.25,17.27c0-3.13-0.75-5.78-2.25-7.97s-3.69-3.85-6.55-5c-2.86-1.15-6.33-1.72-10.41-1.72c-6.37,0-11.3,1.51-14.81,4.53
		c-3.51,3.02-5.26,7.24-5.26,12.66v15.31c0,5.37,1.75,9.52,5.26,12.46c3.5,2.94,8.44,4.41,14.81,4.41c4.08,0,7.55-0.59,10.41-1.76
		c2.86-1.17,5.04-2.85,6.55-5.04s2.25-4.82,2.25-7.89l1.5,17.81c-2.22,4.22-5.78,7.62-10.68,10.2c-4.9,2.58-10.82,3.87-17.76,3.87
		C706.5,179.64,699.65,178.3,693.97,175.62z M741.45,64.72h25.65v113.59h-25.65V64.72z"/>
	<path d="M786.41,97.22h25l35.84,70.47l-15.35,17.27L786.41,97.22z M887.18,97.22l-48.5,100.08c-1.79,3.7-4.06,6.63-6.81,8.79
		c-2.75,2.16-6.17,3.71-10.25,4.65s-9.09,1.41-15.02,1.41h-5.47V194.1h5.47c3.65,0,6.6-0.55,8.85-1.64
		c2.25-1.09,4.09-2.94,5.53-5.55l41.21-89.69H887.18z"/>
	<path d="M906.5,64.72h25.65v113.59H906.5V64.72z M918.83,116.36h49.9c4.15,0,7.78-0.69,10.89-2.07c3.11-1.38,5.54-3.35,7.3-5.9
		c1.75-2.55,2.63-5.49,2.63-8.83c0-3.38-0.86-6.35-2.58-8.91c-1.72-2.55-4.15-4.53-7.3-5.94c-3.15-1.41-6.8-2.11-10.95-2.11h-49.9
		V64.72h49.15c9.51,0,17.88,1.45,25.11,4.34c7.23,2.89,12.84,6.97,16.85,12.23c4.01,5.26,6.01,11.35,6.01,18.28
		c0,6.93-2,13.01-6.01,18.24c-4.01,5.23-9.62,9.28-16.85,12.15c-7.23,2.87-15.6,4.3-25.11,4.3h-49.15V116.36z"/>
	<path d="M1035.8,97.22h26.72v81.09h-26.72V97.22z M1091.5,114.99c-2.5-0.7-5.4-1.05-8.69-1.05c-6.44,0-11.43,1.39-14.97,4.18
		c-3.54,2.79-5.31,6.65-5.31,11.6l-2.25-18.36c3.22-4.84,7.42-8.61,12.61-11.29c5.19-2.68,10.89-4.02,17.12-4.02
		c4.86,0,9.26,0.53,13.2,1.6c3.93,1.07,7.37,2.64,10.3,4.73l-15.67,15.7C1096.11,116.73,1094,115.7,1091.5,114.99z"/>
	<path d="M1145.85,175.35c-7.05-2.76-12.41-6.78-16.1-12.07c-3.69-5.29-5.53-11.65-5.53-19.1v-13.2c0-7.34,1.84-13.63,5.53-18.87
		c3.68-5.23,9.05-9.22,16.1-11.95c7.05-2.73,15.51-4.1,25.38-4.1c9.87,0,18.33,1.37,25.38,4.1c7.05,2.73,12.41,6.72,16.1,11.95
		c3.68,5.23,5.53,11.52,5.53,18.87v13.44c0,7.4-1.84,13.71-5.53,18.95c-3.69,5.23-9.05,9.23-16.1,11.99
		c-7.05,2.76-15.51,4.14-25.38,4.14C1161.36,179.49,1152.9,178.11,1145.85,175.35z M1187,157.1c3.72-2.99,5.58-7.23,5.58-12.7
		v-13.44c0-5.42-1.86-9.61-5.58-12.58c-3.72-2.97-8.98-4.45-15.77-4.45c-6.8,0-12.06,1.48-15.77,4.45
		c-3.72,2.97-5.58,7.16-5.58,12.58v13.44c0,5.47,1.84,9.7,5.53,12.7c3.68,3,8.96,4.49,15.83,4.49
		C1178.02,161.6,1183.28,160.1,1187,157.1z"/>
	<path d="M1247.2,97.22h25.65v114.06h-25.65V97.22z M1282.29,175.85c-4.94-2.42-8.58-5.85-10.95-10.27l1.5-17.73
		c0,3.07,0.75,5.69,2.25,7.85c1.5,2.16,3.68,3.82,6.55,4.96c2.86,1.15,6.33,1.72,10.41,1.72c6.37,0,11.3-1.46,14.81-4.38
		c3.5-2.92,5.26-7.06,5.26-12.42v-15.23c0-5.47-1.75-9.7-5.26-12.69c-3.51-2.99-8.44-4.49-14.81-4.49c-4.08,0-7.55,0.56-10.41,1.68
		c-2.86,1.12-5.04,2.77-6.55,4.96s-2.25,4.82-2.25,7.89l-2.25-16.8c3.15-4.74,7.31-8.4,12.5-10.98c5.19-2.58,10.93-3.87,17.22-3.87
		c7.87,0,14.61,1.33,20.23,3.98c5.62,2.66,9.89,6.55,12.82,11.68c2.93,5.13,4.4,11.32,4.4,18.55v15.31c0,7.14-1.49,13.24-4.45,18.32
		c-2.97,5.08-7.32,8.95-13.04,11.6c-5.72,2.66-12.56,3.98-20.5,3.98C1293.06,179.49,1287.23,178.28,1282.29,175.85z"/>
	<path d="M1397.76,179.49c0,0-3-0.46-9.01-1.37c-6.01-0.91-11.64-2.25-16.9-4.02c-5.26-1.77-10-3.93-14.22-6.48l15.56-14.06
		c5.65,2.92,11.43,5.13,17.33,6.64c5.9,1.51,11.64,2.27,17.22,2.27c7.8,0,13.72-0.77,17.76-2.3c4.04-1.54,6.06-3.76,6.06-6.68
		c0-2.24-1-3.92-3-5.04c-2-1.12-4.53-1.89-7.57-2.3c-3.04-0.42-7.32-0.81-12.82-1.17c-0.93-0.05-1.9-0.1-2.9-0.16
		c-1-0.05-1.97-0.13-2.9-0.23c-0.29,0-0.57-0.01-0.86-0.04c-0.29-0.03-0.57-0.04-0.86-0.04c-7.8-0.63-14.2-1.5-19.21-2.62
		c-5.01-1.12-9.21-3.27-12.61-6.45c-3.4-3.18-5.1-7.73-5.1-13.67c0-5.57,1.7-10.27,5.1-14.1c3.4-3.83,8.39-6.72,14.97-8.67
		c6.58-1.95,14.66-2.93,24.25-2.93c5.72,0,11.3,0.4,16.74,1.21c5.44,0.81,10.64,1.98,15.61,3.52c4.97,1.54,9.67,3.45,14.11,5.74
		l-15.34,13.59c-5.22-2.29-10.5-4.04-15.83-5.23c-5.33-1.2-10.5-1.8-15.51-1.8c-6.73,0-11.84,0.7-15.35,2.11
		c-3.51,1.41-5.26,3.49-5.26,6.25c0,1.77,0.97,3.13,2.9,4.06s4.35,1.58,7.24,1.91c2.9,0.34,7.1,0.69,12.61,1.05
		c0.57,0.05,1.13,0.09,1.66,0.12c0.54,0.03,1.09,0.07,1.66,0.12c0.21,0,0.46,0,0.75,0c0.29,0,0.57,0.03,0.86,0.08
		c8.23,0.57,15.06,1.43,20.5,2.58c5.44,1.15,10.05,3.43,13.84,6.84c3.79,3.41,5.69,8.37,5.69,14.88c0,5.73-1.79,10.56-5.37,14.49
		c-3.58,3.93-8.89,6.9-15.94,8.91c-7.05,2-15.69,3.01-25.92,3.01C1401.09,179.49,1397.76,179.49,1397.76,179.49z"/>
</g>
<g>
	<path class="st0" d="M187.1,52.99c-4.66,0-9.22,0.45-13.64,1.26c-4.14-11.72-11.24-22.57-21.24-31.34
		C121.06-4.4,73.68-1.28,46.37,29.86c-24.89,28.39-24.49,70.26-0.65,98.13c-8.07,9.44-13.92,21.01-16.52,34.07
		c-8.07,40.63,18.31,80.11,58.94,88.18c37.03,7.36,73.1-13.92,85.31-48.51c4.43,0.81,8.98,1.26,13.64,1.26c41.42,0,75-33.58,75-75
		C262.1,86.57,228.52,52.99,187.1,52.99z"/>
	<g>
		<circle class="st1" cx="187.1" cy="127.99" r="75"/>
		<circle class="st2" cx="102.77" cy="79.31" r="75"/>
		<circle class="st3" cx="102.77" cy="176.68" r="75"/>
	</g>
</g>
<path class="st4" d="M112.08,127.98c0-8.79,1.52-17.21,4.3-25.05c0.33,0.06,0.66,0.11,0.99,0.17c-27.57-5.48-54.61,4.93-71.66,24.87
	c2.32,2.71,4.84,5.29,7.6,7.71c17.95,15.74,41.29,21.35,63.07,17.34C113.61,145.19,112.08,136.76,112.08,127.98z"/>
<path class="st5" d="M173.44,54.24c-26.56,4.88-48.21,23.75-57.05,48.69c0.33,0.06,0.66,0.11,0.99,0.18
	c17.21,3.42,31.84,12.49,42.4,24.87c-0.21,0.25-0.41,0.51-0.63,0.76C177.68,107.6,182.19,78.98,173.44,54.24z"/>
<path class="st6" d="M159.79,127.98c-0.21,0.25-0.42,0.5-0.63,0.75c-11.57,13.2-26.75,21.34-42.76,24.29
	c8.84,24.94,30.49,43.81,57.06,48.69c1.19-3.36,2.16-6.84,2.87-10.43C180.97,167.87,174.16,144.84,159.79,127.98z"/>
<path class="st7" d="M116.32,103.14c-0.31,0.89-0.61,1.78-0.89,2.68c-0.03,0.09-0.05,0.18-0.08,0.27c-0.28,0.91-0.54,1.83-0.79,2.75
	c-0.03,0.11-0.05,0.22-0.08,0.32c-0.23,0.9-0.46,1.81-0.66,2.73c-0.03,0.16-0.06,0.32-0.1,0.48c-0.18,0.87-0.36,1.74-0.51,2.62
	c-0.04,0.24-0.08,0.49-0.12,0.73c-0.13,0.8-0.26,1.61-0.37,2.42c-0.05,0.36-0.08,0.73-0.12,1.1c-0.08,0.7-0.17,1.41-0.23,2.12
	c-0.05,0.56-0.08,1.13-0.11,1.69c-0.03,0.53-0.08,1.05-0.1,1.59c-0.05,1.11-0.08,2.22-0.08,3.34s0.03,2.23,0.08,3.34
	c0.02,0.53,0.07,1.06,0.1,1.58c0.04,0.56,0.07,1.13,0.11,1.69c0.06,0.71,0.15,1.41,0.23,2.11c0.04,0.37,0.08,0.74,0.12,1.1
	c0.11,0.81,0.24,1.62,0.37,2.43c0.04,0.24,0.07,0.49,0.12,0.73c0.15,0.88,0.33,1.75,0.51,2.62c0.03,0.16,0.06,0.32,0.1,0.48
	c0.2,0.92,0.42,1.83,0.66,2.73c0.03,0.11,0.05,0.22,0.08,0.33c0.24,0.92,0.51,1.84,0.78,2.75c0.03,0.09,0.05,0.18,0.08,0.27
	c0.28,0.9,0.58,1.79,0.89,2.68c0.02,0.07,0.05,0.14,0.07,0.21c4.92-0.91,9.75-2.31,14.43-4.19c0.12-0.05,0.24-0.09,0.36-0.14
	c0.79-0.32,1.57-0.66,2.35-1.01c0.24-0.11,0.48-0.22,0.72-0.33c0.72-0.33,1.44-0.68,2.15-1.03c0.29-0.15,0.58-0.3,0.86-0.44
	c0.68-0.35,1.36-0.71,2.03-1.08c0.3-0.17,0.59-0.34,0.89-0.51c1.27-0.73,2.52-1.5,3.75-2.31c0.28-0.18,0.57-0.36,0.85-0.55
	c0.46-0.31,0.91-0.64,1.37-0.97c0.49-0.35,0.99-0.7,1.48-1.06c0.43-0.32,0.84-0.65,1.26-0.98c0.51-0.4,1.02-0.8,1.52-1.21
	c0.39-0.32,0.78-0.66,1.17-0.99c0.52-0.45,1.04-0.91,1.56-1.38c0.35-0.32,0.71-0.64,1.06-0.97c0.57-0.54,1.13-1.09,1.68-1.65
	c0.28-0.28,0.57-0.56,0.85-0.85c0.83-0.86,1.64-1.73,2.43-2.64c0.22-0.25,0.42-0.51,0.63-0.76c-3.24-3.81-6.88-7.29-10.85-10.41
	c-0.1-0.08-0.19-0.15-0.29-0.23c-0.67-0.52-1.36-1.03-2.06-1.53c-0.21-0.15-0.42-0.31-0.64-0.46c-0.65-0.46-1.31-0.91-1.97-1.35
	c-0.27-0.18-0.54-0.35-0.81-0.52c-0.64-0.41-1.29-0.82-1.95-1.22c-0.3-0.18-0.6-0.35-0.9-0.52c-1.28-0.74-2.59-1.45-3.92-2.12
	c-0.28-0.14-0.55-0.29-0.84-0.43c-0.5-0.24-1.01-0.47-1.52-0.7c-0.55-0.25-1.1-0.51-1.66-0.75c-0.49-0.21-0.98-0.41-1.48-0.61
	c-0.6-0.24-1.2-0.48-1.81-0.71c-0.48-0.18-0.96-0.35-1.44-0.52c-0.65-0.23-1.31-0.45-1.98-0.66c-0.45-0.15-0.91-0.29-1.37-0.43
	c-0.75-0.22-1.51-0.43-2.26-0.63c-0.39-0.1-0.77-0.21-1.16-0.31c-1.16-0.29-2.32-0.55-3.5-0.79c-0.33-0.07-0.66-0.11-0.99-0.17
	C116.36,103,116.34,103.07,116.32,103.14z"/>
<g>
</g>
<g>
</g>
<g>
</g>
<g>
</g>
<g>
</g>
</svg>
